<?xml version="1.0" encoding="iso-8859-1"?>
<!-- Generator: Adobe Illustrator 19.0.0, SVG Export Plug-In . SVG Version: 6.00 Build 0)  -->
<svg version="1.1" id="Capa_1" xmlns="http://www.w3.org/2000/svg" xmlns:xlink="http://www.w3.org/1999/xlink" x="0px" y="0px"
	 viewBox="0 0 512 512" style="enable-background:new 0 0 512 512;" xml:space="preserve">
<g>
	<path fill="black" d="M480.452,232.468h-16.548v-80.677c0-30.656-24.94-55.597-55.597-55.597h-48.613v-8.532
		c0-12.976-10.557-23.532-23.532-23.532h-32.581V47.581C303.581,21.345,282.236,0,256,0s-47.581,21.345-47.581,47.581v16.548
		h-32.581c-12.976,0-23.532,10.557-23.532,23.532v8.532h-48.613c-30.656,0-55.597,24.941-55.597,55.597v80.677H31.548
		c-12.976,0-23.532,10.557-23.532,23.532v96.193c0,12.976,10.557,23.532,23.532,23.532h16.548v80.678
		c0,30.656,24.94,55.597,55.597,55.597h304.613c30.656,0,55.597-24.94,55.597-55.597v-80.678h16.548
		c12.976,0,23.532-10.557,23.532-23.532V256C503.984,243.024,493.427,232.468,480.452,232.468z M223.419,47.581
		C223.419,29.616,238.035,15,256,15s32.581,14.616,32.581,32.581v16.548h-65.161V47.581z M167.307,87.661
		c0-4.705,3.828-8.532,8.532-8.532h160.322c4.705,0,8.532,3.828,8.532,8.532v8.532H167.307V87.661z M488.984,352.193
		c0,4.705-3.828,8.532-8.532,8.532h-16.548v-72.658c0-4.142-3.358-7.5-7.5-7.5s-7.5,3.358-7.5,7.5v168.335
		c0,22.385-18.211,40.597-40.597,40.597H103.693c-22.385,0-40.597-18.211-40.597-40.597V288.061c0-4.142-3.358-7.5-7.5-7.5
		s-7.5,3.358-7.5,7.5v72.665H31.548c-4.705,0-8.532-3.828-8.532-8.532V256c0-4.705,3.828-8.532,8.532-8.532h16.548v8.534
		c0,4.142,3.358,7.5,7.5,7.5s7.5-3.358,7.5-7.5V151.791c0-22.385,18.211-40.597,40.597-40.597h304.613
		c22.385,0,40.597,18.212,40.597,40.597V256c0,4.142,3.358,7.5,7.5,7.5s7.5-3.358,7.5-7.5v-8.532h16.548
		c4.705,0,8.532,3.828,8.532,8.532V352.193z"/>
	<path fill="black" d="M360.209,376.758H151.791c-12.976,0-23.532,10.557-23.532,23.532v16.032c0,12.976,10.557,23.532,23.532,23.532h208.419
		c12.976,0,23.532-10.557,23.532-23.532v-16.032C383.742,387.315,373.185,376.758,360.209,376.758z M223.419,391.758H248.5v33.097
		h-25.081V391.758z M208.419,424.855h-25.081v-33.097h25.081V424.855z M263.5,391.758h25.081v33.097H263.5V391.758z M303.58,391.758
		h25.081v33.097H303.58V391.758z M143.258,416.323v-16.032c0-4.705,3.828-8.532,8.532-8.532h16.548v33.097h-16.548
		C147.086,424.855,143.258,421.027,143.258,416.323z M368.742,416.323c0,4.705-3.828,8.532-8.532,8.532h-16.548v-33.097h16.548
		c4.705,0,8.532,3.828,8.532,8.532V416.323z"/>
	<path fill="black" d="M139.11,312.753c-3.568-2.106-8.166-0.919-10.271,2.648c-2.105,3.567-0.919,8.166,2.648,10.271
		c11.332,6.686,23.9,9.944,36.381,9.944c18.506,0,36.818-7.167,50.602-20.951c23.08-23.079,27.605-58.848,11.007-86.984
		c-2.104-3.566-6.702-4.754-10.271-2.648c-3.567,2.104-4.753,6.703-2.648,10.271c13.122,22.241,9.546,50.515-8.694,68.755
		c-9.036,9.036-20.535,14.467-32.542,16.059V207.934c7.324,0.986,14.54,3.409,21.212,7.345c3.566,2.104,8.166,0.919,10.271-2.648
		c2.105-3.567,0.919-8.166-2.648-10.271c-28.135-16.599-63.904-12.073-86.983,11.006s-27.605,58.849-11.006,86.984
		c1.399,2.371,3.899,3.69,6.466,3.69c1.295,0,2.608-0.335,3.804-1.042c3.567-2.104,4.753-6.703,2.648-10.271
		c-13.122-22.241-9.546-50.514,8.694-68.755c9.036-9.037,20.535-14.468,32.543-16.059v112.184
		C152.998,319.112,145.783,316.689,139.11,312.753z"/>
	<path fill="black" d="M395.516,225.033c-3.567,2.104-4.753,6.703-2.648,10.271c13.122,22.241,9.546,50.514-8.694,68.755
		c-9.036,9.036-20.535,14.468-32.543,16.059V207.934c7.324,0.986,14.54,3.408,21.212,7.345c3.567,2.104,8.166,0.919,10.271-2.648
		c2.105-3.567,0.919-8.166-2.648-10.271c-28.135-16.599-63.905-12.073-86.984,11.006c-23.08,23.08-27.605,58.849-11.006,86.984
		c1.399,2.371,3.899,3.69,6.467,3.69c1.295,0,2.607-0.335,3.804-1.042c3.567-2.104,4.753-6.703,2.648-10.271
		c-13.122-22.241-9.546-50.514,8.694-68.755c9.036-9.036,20.535-14.467,32.543-16.058v112.183
		c-7.324-0.986-14.54-3.408-21.212-7.345c-3.567-2.105-8.165-0.92-10.271,2.648c-2.105,3.567-0.919,8.166,2.648,10.271
		c11.332,6.686,23.9,9.944,36.381,9.944c18.506,0,36.819-7.167,50.603-20.95c23.08-23.08,27.605-58.849,11.006-86.984
		C403.683,224.115,399.085,222.928,395.516,225.033z"/>
</g>
<g>
</g>
<g>
</g>
<g>
</g>
<g>
</g>
<g>
</g>
<g>
</g>
<g>
</g>
<g>
</g>
<g>
</g>
<g>
</g>
<g>
</g>
<g>
</g>
<g>
</g>
<g>
</g>
<g>
</g>
</svg>
